<?xml version="1.0" encoding="utf-8"?>
<svg viewBox="0 0 4091.27 4091.73" shape-rendering="geometricPrecision" text-rendering="geometricPrecision" image-rendering="optimizeQuality" fill-rule="evenodd" clip-rule="evenodd" xmlns="http://www.w3.org/2000/svg">
  <g id="Layer_x0020_1">
    <g id="_1421344023328">
      <path fill="#F7931A" fill-rule="nonzero" d="M4030.06 2540.77c-273.24,1096.01 -1383.32,1763.02 -2479.46,1489.71 -1095.68,-273.24 -1762.69,-1383.39 -1489.33,-2479.31 273.12,-1096.13 1383.2,-1763.19 2479,-1489.95 1096.06,273.24 1763.03,1383.51 1489.76,2479.57l0.02 -0.02z"/>
      <path fill="white" fill-rule="nonzero" d="M2947.77 1754.38c40.72,-272.26 -166.56,-418.61 -450,-516.24l91.95 -368.8 -224.5 -55.94 -89.51 359.09c-59.02,-14.72 -119.63,-28.59 -179.87,-42.34l90.16 -361.46 -224.36 -55.94 -92 368.68c-48.84,-11.12 -96.81,-22.11 -143.35,-33.69l0.26 -1.16 -309.59 -77.31 -59.72 239.78c0,0 166.56,38.18 163.05,40.53 90.91,22.69 107.35,82.87 104.62,130.57l-104.74 420.15c6.26,1.59 14.38,3.89 23.34,7.49 -7.49,-1.86 -15.46,-3.89 -23.73,-5.87l-146.81 588.57c-11.11,27.62 -39.31,69.07 -102.87,53.33 2.25,3.26 -163.17,-40.72 -163.17,-40.72l-111.46 256.98 292.15 72.83c54.35,13.63 107.61,27.89 160.06,41.3l-92.9 373.03 224.24 55.94 92 -369.07c61.26,16.63 120.71,31.97 178.91,46.43l-91.69 367.33 224.51 55.94 92.89 -372.33c382.82,72.45 670.67,43.24 791.83,-303.02 97.63,-278.78 -4.86,-439.58 -206.26,-544.44 146.69,-33.83 257.18,-130.31 286.64,-329.61l-0.07 -0.05zm-512.93 719.26c-69.38,278.78 -538.76,128.08 -690.94,90.29l123.28 -494.2c152.17,37.99 640.17,113.17 567.67,403.91zm69.43 -723.3c-63.29,253.58 -453.96,124.75 -580.69,93.16l111.77 -448.21c126.73,31.59 534.85,90.55 468.94,355.05l-0.02 0z"/>
    </g>
  </g>
  <rect style="fill: rgb(243, 186, 47);" y="3238.905" width="4091.27" height="852.825" rx="426.4125" ry="426.4125"/>
  <path d="M 1013.825 3921.72 L 801.865 3921.72 L 801.865 3398.08 L 1002.315 3398.08 C 1040.155 3398.08 1071.648 3404.003 1096.795 3415.85 C 1121.935 3427.697 1140.768 3443.85 1153.295 3464.31 C 1165.828 3484.763 1172.095 3507.943 1172.095 3533.85 C 1172.095 3555.157 1168.002 3573.353 1159.815 3588.44 C 1151.635 3603.527 1140.642 3615.757 1126.835 3625.13 C 1113.028 3634.503 1097.602 3641.237 1080.555 3645.33 L 1080.555 3650.44 C 1099.135 3651.467 1116.992 3657.133 1134.125 3667.44 C 1151.252 3677.753 1165.272 3692.287 1176.185 3711.04 C 1187.092 3729.787 1192.545 3752.457 1192.545 3779.05 C 1192.545 3806.15 1185.982 3830.483 1172.855 3852.05 C 1159.728 3873.61 1139.955 3890.613 1113.535 3903.06 C 1087.115 3915.5 1053.878 3921.72 1013.825 3921.72 Z M 896.725 3689.05 L 896.725 3842.46 L 998.735 3842.46 C 1033.168 3842.46 1058.012 3835.853 1073.265 3822.64 C 1088.525 3809.433 1096.155 3792.43 1096.155 3771.63 C 1096.155 3756.123 1092.318 3742.107 1084.645 3729.58 C 1076.978 3717.047 1066.068 3707.16 1051.915 3699.92 C 1037.768 3692.673 1020.895 3689.05 1001.295 3689.05 L 896.725 3689.05 Z M 896.725 3476.32 L 896.725 3620.78 L 990.555 3620.78 C 1006.922 3620.78 1021.665 3617.757 1034.785 3611.71 C 1047.912 3605.657 1058.268 3597.047 1065.855 3585.88 C 1073.442 3574.713 1077.235 3561.46 1077.235 3546.12 C 1077.235 3525.84 1070.118 3509.137 1055.885 3496.01 C 1041.652 3482.883 1020.558 3476.32 992.605 3476.32 L 896.725 3476.32 ZM 1617.742 3921.72 L 1275.132 3921.72 L 1275.132 3398.08 L 1615.702 3398.08 L 1615.702 3477.6 L 1369.992 3477.6 L 1369.992 3619.76 L 1598.052 3619.76 L 1598.052 3699.28 L 1369.992 3699.28 L 1369.992 3842.2 L 1617.742 3842.2 L 1617.742 3921.72 ZM 1807.464 3921.72 L 1712.604 3921.72 L 1712.604 3398.08 L 1908.964 3398.08 C 1949.19 3398.08 1982.984 3405.58 2010.344 3420.58 C 2037.704 3435.58 2058.414 3456.163 2072.474 3482.33 C 2086.534 3508.497 2093.564 3538.2 2093.564 3571.44 C 2093.564 3605.02 2086.49 3634.847 2072.344 3660.92 C 2058.197 3687 2037.317 3707.5 2009.704 3722.42 C 1982.09 3737.333 1948.084 3744.79 1907.684 3744.79 L 1777.544 3744.79 L 1777.544 3666.81 L 1894.904 3666.81 C 1918.424 3666.81 1937.684 3662.717 1952.684 3654.53 C 1967.684 3646.35 1978.807 3635.1 1986.054 3620.78 C 1993.3 3606.467 1996.924 3590.02 1996.924 3571.44 C 1996.924 3552.86 1993.3 3536.493 1986.054 3522.34 C 1978.807 3508.193 1967.644 3497.157 1952.564 3489.23 C 1937.477 3481.303 1918.087 3477.34 1894.394 3477.34 L 1807.464 3477.34 L 1807.464 3921.72 ZM 2154.422 3665.53 L 2390.162 3665.53 L 2390.162 3741.72 L 2154.422 3741.72 L 2154.422 3665.53 ZM 2827.628 3921.72 L 2468.648 3921.72 L 2468.648 3853.2 L 2650.438 3674.99 C 2667.825 3657.43 2682.315 3641.833 2693.908 3628.2 C 2705.502 3614.56 2714.195 3601.35 2719.988 3588.57 C 2725.782 3575.783 2728.678 3562.147 2728.678 3547.66 C 2728.678 3531.127 2724.928 3516.937 2717.428 3505.09 C 2709.928 3493.243 2699.618 3484.08 2686.498 3477.6 C 2673.372 3471.12 2658.455 3467.88 2641.748 3467.88 C 2624.535 3467.88 2609.452 3471.42 2596.498 3478.5 C 2583.538 3485.573 2573.522 3495.587 2566.448 3508.54 C 2559.375 3521.493 2555.838 3536.92 2555.838 3554.82 L 2465.588 3554.82 C 2465.588 3521.58 2473.172 3492.687 2488.338 3468.14 C 2503.512 3443.593 2524.435 3424.587 2551.108 3411.12 C 2577.788 3397.653 2608.428 3390.92 2643.028 3390.92 C 2678.142 3390.92 2708.995 3397.483 2735.588 3410.61 C 2762.175 3423.737 2782.842 3441.72 2797.588 3464.56 C 2812.335 3487.4 2819.708 3513.48 2819.708 3542.8 C 2819.708 3562.4 2815.958 3581.66 2808.458 3600.58 C 2800.958 3619.5 2787.788 3640.467 2768.948 3663.48 C 2750.115 3686.493 2723.738 3714.363 2689.818 3747.09 L 2599.558 3838.88 L 2599.558 3842.46 L 2827.628 3842.46 L 2827.628 3921.72 ZM 3109.652 3931.69 C 3067.545 3931.69 3031.448 3920.993 3001.362 3899.6 C 2971.282 3878.213 2948.185 3847.277 2932.072 3806.79 C 2915.965 3766.31 2907.912 3717.517 2907.912 3660.41 C 2908.085 3603.31 2916.225 3554.69 2932.332 3514.55 C 2948.438 3474.403 2971.535 3443.763 3001.622 3422.63 C 3031.708 3401.49 3067.718 3390.92 3109.652 3390.92 C 3151.578 3390.92 3187.628 3401.49 3217.802 3422.63 C 3247.968 3443.763 3271.108 3474.443 3287.222 3514.67 C 3303.328 3554.903 3311.382 3603.483 3311.382 3660.41 C 3311.382 3717.683 3303.328 3766.563 3287.222 3807.05 C 3271.108 3847.53 3248.012 3878.423 3217.932 3899.73 C 3187.845 3921.037 3151.752 3931.69 3109.652 3931.69 Z M 3109.652 3851.66 C 3142.378 3851.66 3168.242 3835.51 3187.242 3803.21 C 3206.248 3770.91 3215.752 3723.31 3215.752 3660.41 C 3215.752 3618.823 3211.405 3583.88 3202.712 3555.58 C 3194.018 3527.287 3181.748 3505.94 3165.902 3491.54 C 3150.048 3477.133 3131.298 3469.93 3109.652 3469.93 C 3077.092 3469.93 3051.352 3486.08 3032.432 3518.38 C 3013.512 3550.68 3003.965 3598.023 3003.792 3660.41 C 3003.625 3702.177 3007.845 3737.29 3016.452 3765.75 C 3025.058 3794.217 3037.288 3815.653 3053.142 3830.06 C 3068.995 3844.46 3087.832 3851.66 3109.652 3851.66 Z" transform="matrix(1, 0, 0, 1, 0, 0)" style="fill: rgb(255, 255, 255); white-space: pre;"/>
</svg>