<?xml version="1.0" encoding="utf-8"?>
<svg viewBox="233.899 241.133 32.101 32" xmlns="http://www.w3.org/2000/svg">
  <g fill="none" fill-rule="evenodd" transform="matrix(1, 0, 0, 1, 234, 241.132904)">
    <circle cx="16" cy="16" r="16" fill="#627EEA"/>
    <g fill="#FFF" fill-rule="nonzero">
      <path fill-opacity=".602" d="M16.498 4v8.87l7.497 3.35z"/>
      <path d="M16.498 4L9 16.22l7.498-3.35z"/>
      <path fill-opacity=".602" d="M16.498 21.968v6.027L24 17.616z"/>
      <path d="M16.498 27.995v-6.028L9 17.616z"/>
      <path fill-opacity=".2" d="M16.498 20.573l7.497-4.353-7.497-3.348z"/>
      <path fill-opacity=".602" d="M9 16.22l7.498 4.353v-7.701z"/>
    </g>
  </g>
  <rect style="fill: rgb(243, 186, 47);" x="234" y="263.573" width="32" height="9.56" rx="4.8" ry="4.8"/>
  <path d="M 239.471 270.632 L 239.041 270.632 L 239.041 266.172 L 239.451 266.172 C 239.551 266.172 239.655 266.169 239.761 266.162 C 239.861 266.155 239.971 266.149 240.091 266.142 C 240.211 266.135 240.348 266.132 240.501 266.132 C 240.868 266.132 241.168 266.175 241.401 266.262 C 241.635 266.355 241.805 266.482 241.911 266.642 C 242.018 266.809 242.071 267.002 242.071 267.222 C 242.071 267.369 242.048 267.515 242.001 267.662 C 241.955 267.802 241.881 267.922 241.781 268.022 C 241.681 268.129 241.555 268.202 241.401 268.242 C 241.575 268.255 241.735 268.312 241.881 268.412 C 242.021 268.505 242.131 268.629 242.211 268.782 C 242.298 268.935 242.341 269.105 242.341 269.292 C 242.341 269.559 242.288 269.795 242.181 270.002 C 242.068 270.215 241.881 270.379 241.621 270.492 C 241.355 270.612 240.988 270.672 240.521 270.672 C 240.335 270.672 240.141 270.669 239.941 270.662 C 239.741 270.649 239.585 270.639 239.471 270.632 Z M 239.901 266.762 L 239.901 268.042 C 239.941 268.049 239.988 268.052 240.041 268.052 C 240.101 268.059 240.161 268.062 240.221 268.062 C 240.281 268.062 240.338 268.062 240.391 268.062 C 240.445 268.062 240.491 268.062 240.531 268.062 C 240.751 268.062 240.925 268.002 241.051 267.882 C 241.178 267.769 241.241 267.582 241.241 267.322 C 241.241 267.115 241.168 266.962 241.021 266.862 C 240.868 266.769 240.655 266.722 240.381 266.722 C 240.348 266.722 240.298 266.725 240.231 266.732 C 240.165 266.732 240.098 266.735 240.031 266.742 C 239.965 266.742 239.921 266.749 239.901 266.762 Z M 239.901 268.652 L 239.901 270.022 C 239.928 270.035 239.981 270.049 240.061 270.062 C 240.135 270.069 240.215 270.075 240.301 270.082 C 240.395 270.082 240.475 270.082 240.541 270.082 C 240.835 270.082 241.061 270.025 241.221 269.912 C 241.381 269.805 241.461 269.612 241.461 269.332 C 241.461 269.092 241.388 268.915 241.241 268.802 C 241.095 268.689 240.861 268.632 240.541 268.632 C 240.495 268.632 240.441 268.632 240.381 268.632 C 240.321 268.632 240.258 268.632 240.191 268.632 C 240.131 268.632 240.075 268.635 240.021 268.642 C 239.975 268.642 239.935 268.645 239.901 268.652 ZM 245.965 270.632 L 243.095 270.632 L 243.095 266.172 L 245.775 266.172 L 245.775 266.822 L 243.955 266.822 L 243.955 268.022 L 245.325 268.022 L 245.325 268.662 L 243.955 268.662 L 243.955 269.962 L 245.965 269.962 L 245.965 270.632 ZM 247.556 270.632 L 246.696 270.632 L 246.696 266.172 L 247.056 266.172 C 247.242 266.172 247.432 266.165 247.626 266.152 C 247.812 266.132 248.009 266.122 248.216 266.122 C 248.556 266.122 248.846 266.175 249.086 266.282 C 249.332 266.382 249.519 266.542 249.646 266.762 C 249.779 266.982 249.846 267.272 249.846 267.632 C 249.846 268.132 249.696 268.522 249.396 268.802 C 249.089 269.075 248.652 269.212 248.086 269.212 C 247.952 269.212 247.846 269.212 247.766 269.212 C 247.679 269.205 247.609 269.202 247.556 269.202 L 247.556 270.632 Z M 247.556 266.782 L 247.556 268.562 C 247.636 268.569 247.719 268.575 247.806 268.582 C 247.892 268.589 247.976 268.592 248.056 268.592 C 248.222 268.592 248.379 268.565 248.526 268.512 C 248.666 268.452 248.779 268.355 248.866 268.222 C 248.952 268.082 248.996 267.885 248.996 267.632 C 248.996 267.325 248.916 267.095 248.756 266.942 C 248.596 266.789 248.359 266.719 248.046 266.732 C 247.966 266.739 247.882 266.742 247.796 266.742 C 247.716 266.749 247.636 266.762 247.556 266.782 ZM 253.068 268.992 L 250.578 268.992 L 250.578 268.342 L 253.068 268.342 L 253.068 268.992 ZM 256.976 270.632 L 254.036 270.632 L 253.916 270.242 C 254.083 270.129 254.26 269.999 254.446 269.852 C 254.633 269.699 254.816 269.535 254.996 269.362 C 255.17 269.182 255.326 268.992 255.466 268.792 C 255.613 268.599 255.73 268.399 255.816 268.192 C 255.896 267.985 255.936 267.785 255.936 267.592 C 255.936 267.339 255.873 267.145 255.746 267.012 C 255.626 266.879 255.453 266.812 255.226 266.812 C 255.033 266.812 254.846 266.852 254.666 266.932 C 254.486 267.005 254.346 267.095 254.246 267.202 L 253.936 266.722 C 254.01 266.635 254.116 266.549 254.256 266.462 C 254.39 266.369 254.55 266.292 254.736 266.232 C 254.93 266.165 255.15 266.132 255.396 266.132 C 255.73 266.132 256.003 266.195 256.216 266.322 C 256.423 266.449 256.573 266.619 256.666 266.832 C 256.766 267.039 256.816 267.269 256.816 267.522 C 256.816 267.822 256.743 268.119 256.596 268.412 C 256.45 268.705 256.246 268.989 255.986 269.262 C 255.733 269.529 255.44 269.775 255.106 270.002 L 256.976 269.942 L 256.976 270.632 ZM 259.341 270.682 C 259.034 270.682 258.771 270.619 258.551 270.492 C 258.338 270.359 258.164 270.182 258.031 269.962 C 257.891 269.742 257.791 269.492 257.731 269.212 C 257.671 268.932 257.641 268.639 257.641 268.332 C 257.648 267.879 257.731 267.489 257.891 267.162 C 258.044 266.829 258.254 266.572 258.521 266.392 C 258.788 266.212 259.084 266.122 259.411 266.122 C 259.724 266.122 259.988 266.182 260.201 266.302 C 260.414 266.415 260.584 266.575 260.711 266.782 C 260.844 266.995 260.941 267.235 261.001 267.502 C 261.054 267.775 261.081 268.065 261.081 268.372 C 261.074 268.832 260.998 269.235 260.851 269.582 C 260.704 269.929 260.501 270.199 260.241 270.392 C 259.981 270.585 259.681 270.682 259.341 270.682 Z M 259.361 270.002 C 259.634 270.009 259.841 269.879 259.981 269.612 C 260.121 269.345 260.191 268.942 260.191 268.402 C 260.191 268.082 260.161 267.802 260.101 267.562 C 260.048 267.322 259.961 267.135 259.841 267.002 C 259.714 266.869 259.558 266.802 259.371 266.802 C 259.104 266.802 258.898 266.929 258.751 267.182 C 258.611 267.435 258.541 267.812 258.541 268.312 C 258.541 268.625 258.571 268.909 258.631 269.162 C 258.691 269.415 258.781 269.619 258.901 269.772 C 259.021 269.919 259.174 269.995 259.361 270.002 Z" transform="matrix(1, 0, 0, 1, 0, 0)" style="fill: rgb(255, 255, 255); paint-order: fill; text-transform: uppercase; white-space: pre;"/>
</svg>