<?xml version="1.0" encoding="UTF-8"?>
<svg xmlns="http://www.w3.org/2000/svg" xmlns:xlink="http://www.w3.org/1999/xlink" viewBox="0 0 104 104" width="104px" height="104px">
<g id="surface1788853">
<path style=" stroke:none;fill-rule:nonzero;fill:rgb(80.000001%,80.000001%,80.000001%);fill-opacity:1;" d="M 52 4.75 C 25.90625 4.75 4.75 25.90625 4.75 52 C 4.75 78.09375 25.90625 99.25 52 99.25 C 78.09375 99.25 99.25 78.09375 99.25 52 C 99.25 25.90625 78.09375 4.75 52 4.75 Z M 61.84375 77.984375 C 59.40625 78.9375 57.46875 79.671875 56.015625 80.171875 C 54.5625 80.671875 52.890625 80.921875 50.96875 80.921875 C 48.03125 80.921875 45.734375 80.203125 44.09375 78.765625 C 42.46875 77.34375 41.65625 75.515625 41.65625 73.296875 C 41.65625 72.4375 41.71875 71.5625 41.84375 70.671875 C 41.953125 69.765625 42.15625 68.765625 42.421875 67.625 L 45.46875 56.875 C 45.734375 55.84375 45.96875 54.875 46.15625 53.953125 C 46.34375 53.03125 46.421875 52.1875 46.421875 51.421875 C 46.421875 50.0625 46.140625 49.09375 45.578125 48.5625 C 45 48.015625 43.921875 47.75 42.328125 47.75 C 41.546875 47.75 40.734375 47.875 39.90625 48.109375 C 39.078125 48.359375 38.375 48.59375 37.78125 48.8125 L 38.59375 45.5 C 40.578125 44.6875 42.484375 44 44.3125 43.421875 C 46.125 42.84375 47.859375 42.546875 49.46875 42.546875 C 52.390625 42.546875 54.65625 43.265625 56.234375 44.671875 C 57.8125 46.078125 58.609375 47.921875 58.609375 50.171875 C 58.609375 50.640625 58.5625 51.46875 58.453125 52.640625 C 58.34375 53.8125 58.140625 54.890625 57.84375 55.890625 L 54.8125 66.609375 C 54.5625 67.46875 54.34375 68.453125 54.140625 69.546875 C 53.953125 70.640625 53.859375 71.484375 53.859375 72.046875 C 53.859375 73.46875 54.171875 74.453125 54.8125 74.96875 C 55.4375 75.484375 56.546875 75.734375 58.125 75.734375 C 58.859375 75.734375 59.6875 75.609375 60.625 75.359375 C 61.546875 75.09375 62.21875 74.875 62.640625 74.671875 Z M 61.296875 34.46875 C 59.890625 35.78125 58.1875 36.4375 56.203125 36.4375 C 54.21875 36.4375 52.5 35.78125 51.078125 34.46875 C 49.65625 33.15625 48.953125 31.5625 48.953125 29.703125 C 48.953125 27.84375 49.671875 26.234375 51.078125 24.90625 C 52.5 23.578125 54.21875 22.921875 56.203125 22.921875 C 58.1875 22.921875 59.890625 23.578125 61.296875 24.90625 C 62.71875 26.234375 63.421875 27.84375 63.421875 29.703125 C 63.421875 31.5625 62.71875 33.15625 61.296875 34.46875 Z M 61.296875 34.46875 "/>
</g>
</svg>
