<?xml version="1.0" encoding="UTF-8" standalone="no"?> <!-- Created with Vectornator for iOS (http://vectornator.io/) --><!DOCTYPE svg PUBLIC "-//W3C//DTD SVG 1.1//EN" "http://www.w3.org/Graphics/SVG/1.1/DTD/svg11.dtd">
<svg height="100%" style="fill-rule:nonzero;clip-rule:evenodd;stroke-linecap:round;stroke-linejoin:round;" xmlns:xlink="http://www.w3.org/1999/xlink" xmlns="http://www.w3.org/2000/svg" xml:space="preserve" width="100%" xmlns:vectornator="http://vectornator.io" version="1.1" viewBox="0 0 378 436">
<metadata>
<vectornator:setting key="DimensionsVisible" value="0"/>
<vectornator:setting key="PencilOnly" value="0"/>
<vectornator:setting key="SnapToPoints" value="0"/>
<vectornator:setting key="OutlineMode" value="0"/>
<vectornator:setting key="CMYKEnabledKey" value="0"/>
<vectornator:setting key="RulersVisible" value="1"/>
<vectornator:setting key="SnapToEdges" value="0"/>
<vectornator:setting key="GuidesVisible" value="0"/>
<vectornator:setting key="DisplayWhiteBackground" value="0"/>
<vectornator:setting key="doHistoryDisabled" value="0"/>
<vectornator:setting key="SnapToGuides" value="1"/>
<vectornator:setting key="TimeLapseWatermarkDisabled" value="0"/>
<vectornator:setting key="Units" value="Points"/>
<vectornator:setting key="DynamicGuides" value="1"/>
<vectornator:setting key="IsolateActiveLayer" value="0"/>
<vectornator:setting key="SnapToGrid" value="0"/>
</metadata>
<defs/>
<g id="Untitled" vectornator:layerName="Untitled">
<path d="M262+369.5C262+361.492+268.492+355+276.5+355C284.508+355+291+361.492+291+369.5C291+377.508+284.508+384+276.5+384C268.492+384+262+377.508+262+369.5Z" opacity="1" fill="#734ce2"/>
<path d="M88+368.5C88+360.492+94.4919+354+102.5+354C110.508+354+117+360.492+117+368.5C117+376.508+110.508+383+102.5+383C94.4919+383+88+376.508+88+368.5Z" opacity="1" fill="#734ce2"/>
<path d="M174+421.5C174+413.492+180.492+407+188.5+407C196.508+407+203+413.492+203+421.5C203+429.508+196.508+436+188.5+436C180.492+436+174+429.508+174+421.5Z" opacity="1" fill="#734ce2"/>
<path d="M0+318.5C0+310.492+6.49187+304+14.5+304C22.5081+304+29+310.492+29+318.5C29+326.508+22.5081+333+14.5+333C6.49187+333+0+326.508+0+318.5Z" opacity="1" fill="#734ce2"/>
<path d="M0+217.5C0+209.492+6.49187+203+14.5+203C22.5081+203+29+209.492+29+217.5C29+225.508+22.5081+232+14.5+232C6.49187+232+0+225.508+0+217.5Z" opacity="1" fill="#734ce2"/>
<path d="M0+116.5C0+108.492+6.49187+102+14.5+102C22.5081+102+29+108.492+29+116.5C29+124.508+22.5081+131+14.5+131C6.49187+131+0+124.508+0+116.5Z" opacity="1" fill="#734ce2"/>
<path d="M174+14.5C174+6.49187+180.492+0+188.5+0C196.508+0+203+6.49187+203+14.5C203+22.5081+196.508+29+188.5+29C180.492+29+174+22.5081+174+14.5Z" opacity="1" fill="#734ce2"/>
<path d="M85+267.5C85+257.835+92.835+250+102.5+250C112.165+250+120+257.835+120+267.5C120+277.165+112.165+285+102.5+285C92.835+285+85+277.165+85+267.5Z" opacity="1" fill="#734ce2"/>
<path d="M171+317.5C171+307.835+178.835+300+188.5+300C198.165+300+206+307.835+206+317.5C206+327.165+198.165+335+188.5+335C178.835+335+171+327.165+171+317.5Z" opacity="1" fill="#734ce2"/>
<path d="M259+267.5C259+257.835+266.835+250+276.5+250C286.165+250+294+257.835+294+267.5C294+277.165+286.165+285+276.5+285C266.835+285+259+277.165+259+267.5Z" opacity="1" fill="#734ce2"/>
<path d="M259+166.5C259+156.835+266.835+149+276.5+149C286.165+149+294+156.835+294+166.5C294+176.165+286.165+184+276.5+184C266.835+184+259+176.165+259+166.5Z" opacity="1" fill="#734ce2"/>
<path d="M82+166.5C82+156.835+89.835+149+99.5+149C109.165+149+117+156.835+117+166.5C117+176.165+109.165+184+99.5+184C89.835+184+82+176.165+82+166.5Z" opacity="1" fill="#734ce2"/>
<path d="M171+116.5C171+106.835+178.835+99+188.5+99C198.165+99+206+106.835+206+116.5C206+126.165+198.165+134+188.5+134C178.835+134+171+126.165+171+116.5Z" opacity="1" fill="#734ce2"/>
<path d="M167+217.5C167+205.074+177.074+195+189.5+195C201.926+195+212+205.074+212+217.5C212+229.926+201.926+240+189.5+240C177.074+240+167+229.926+167+217.5Z" opacity="1" fill="#734ce2"/>
<path d="M88+67.5C88+59.4919+94.4919+53+102.5+53C110.508+53+117+59.4919+117+67.5C117+75.5081+110.508+82+102.5+82C94.4919+82+88+75.5081+88+67.5Z" opacity="1" fill="#734ce2"/>
<path d="M262+68.5C262+60.4919+268.492+54+276.5+54C284.508+54+291+60.4919+291+68.5C291+76.5081+284.508+83+276.5+83C268.492+83+262+76.5081+262+68.5Z" opacity="1" fill="#734ce2"/>
<path d="M349+116.5C349+108.492+355.492+102+363.5+102C371.508+102+378+108.492+378+116.5C378+124.508+371.508+131+363.5+131C355.492+131+349+124.508+349+116.5Z" opacity="1" fill="#734ce2"/>
<path d="M349+217.5C349+209.492+355.492+203+363.5+203C371.508+203+378+209.492+378+217.5C378+225.508+371.508+232+363.5+232C355.492+232+349+225.508+349+217.5Z" opacity="1" fill="#734ce2"/>
<path d="M349+318.5C349+310.492+355.492+304+363.5+304C371.508+304+378+310.492+378+318.5C378+326.508+371.508+333+363.5+333C355.492+333+349+326.508+349+318.5Z" opacity="1" fill="#734ce2"/>
<path stroke="#734ce2" stroke-width="12" d="M25.8339+313.903L91.8339+272.903" fill="none" stroke-linecap="butt" opacity="1" stroke-linejoin="miter"/>
<path stroke="#734ce2" stroke-width="12" d="M25.8339+212.903L91.8339+171.903" fill="none" stroke-linecap="butt" opacity="1" stroke-linejoin="miter"/>
<path stroke="#734ce2" stroke-width="12" d="M108.892+266.868L179.892+223.868" fill="none" stroke-linecap="butt" opacity="1" stroke-linejoin="miter"/>
<path stroke="#734ce2" stroke-width="12" d="M281.892+365.868L352.892+322.868" fill="none" stroke-linecap="butt" opacity="1" stroke-linejoin="miter"/>
<path stroke="#734ce2" stroke-width="12" d="M207.892+206.868L278.892+163.868" fill="none" stroke-linecap="butt" opacity="1" stroke-linejoin="miter"/>
<path stroke="#734ce2" stroke-width="12" d="M287.892+160.868L358.892+117.868" fill="none" stroke-linecap="butt" opacity="1" stroke-linejoin="miter"/>
<path stroke="#734ce2" stroke-width="12" d="M193.892+115.868L264.892+72.8678" fill="none" stroke-linecap="butt" opacity="1" stroke-linejoin="miter"/>
<path stroke="#734ce2" stroke-width="12" d="M113.892+362.868L184.892+319.868" fill="none" stroke-linecap="butt" opacity="1" stroke-linejoin="miter"/>
<path stroke="#734ce2" stroke-width="12" d="M288.892+262.868L359.892+219.868" fill="none" stroke-linecap="butt" opacity="1" stroke-linejoin="miter"/>
<path stroke="#734ce2" stroke-width="12" d="M105.23+65.9438L177.23+111.944" fill="none" stroke-linecap="butt" opacity="1" stroke-linejoin="miter"/>
<path stroke="#734ce2" stroke-width="12" d="M105.23+166.944L177.23+212.944" fill="none" stroke-linecap="butt" opacity="1" stroke-linejoin="miter"/>
<path stroke="#734ce2" stroke-width="12" d="M207.23+228.944L279.23+274.944" fill="none" stroke-linecap="butt" opacity="1" stroke-linejoin="miter"/>
<path stroke="#734ce2" stroke-width="12" d="M197.23+319.944L269.23+365.944" fill="none" stroke-linecap="butt" opacity="1" stroke-linejoin="miter"/>
<path stroke="#734ce2" stroke-width="12" d="M25.8339+110.903L91.8339+69.9034" fill="none" stroke-linecap="butt" opacity="1" stroke-linejoin="miter"/>
</g>
</svg>
